<?xml version="1.0" encoding="utf-8"?>
<!-- Generator: Adobe Illustrator 22.1.0, SVG Export Plug-In . SVG Version: 6.00 Build 0)  -->
<svg version="1.1" id="圖層_1" xmlns="http://www.w3.org/2000/svg" xmlns:xlink="http://www.w3.org/1999/xlink" x="0px" y="0px"
	 viewBox="0 0 49 46" style="enable-background:new 0 0 49 46;" xml:space="preserve">
<style type="text/css">
	.st0{fill:#1A1311;}
</style>
<g>
	<path class="st0" d="M25.6,21.8c-2.1,1.9-3.2,3.6-3.2,5.1v1.5c0,1,0.5,1.5,1.5,1.5c1,0,1.5-0.5,1.5-1.5v-1.5c0-0.7,0.9-1.8,2.8-3.5
		c2.3-2.1,3.5-4.3,3.5-6.8c0-4.1-2.4-6.1-7.3-6.1c-1.1,0-2.5,0.4-4.2,1.1c-1.9,0.9-2.8,1.8-2.8,2.8c0,1,0.5,1.5,1.5,1.5
		c0.3,0,0.6-0.1,1-0.4c1.7-1.4,3.2-2.1,4.5-2.1c3,0,4.4,1,4.4,3.1C28.7,18.2,27.7,19.9,25.6,21.8z"/>
	<path class="st0" d="M26.1,34.1c0-0.6-0.2-1.1-0.6-1.5c-0.4-0.4-1-0.6-1.5-0.6s-1.1,0.2-1.5,0.6c-0.4,0.4-0.6,0.9-0.6,1.5
		c0,0.6,0.2,1.1,0.6,1.5c0.4,0.4,1,0.7,1.5,0.7s1.1-0.2,1.5-0.7C25.9,35.2,26.1,34.7,26.1,34.1z"/>
	<path class="st0" d="M20.8,34.1c0-0.1,0-0.1,0-0.2H11c-4,0-6.6-4.8-6.6-4.9c-0.4-0.7-1.3-1-2-0.6c-0.7,0.4-1,1.3-0.6,2
		c0.1,0.3,3.4,6.5,9.3,6.5h11.5c-0.3-0.2-0.6-0.3-0.8-0.6C21.1,35.7,20.8,35,20.8,34.1z"/>
	<path class="st0" d="M46.5,28.4L46.5,28.4c-0.7-0.4-1.6,0-2,0.7c0,0,0,0,0,0c-2.5,5.2-6.8,4.8-7,4.8c-0.1,0-0.1,0-0.2,0H27.1
		c0,0.1,0,0.1,0,0.2c0,0.9-0.3,1.6-0.9,2.2c-0.3,0.3-0.5,0.5-0.9,0.6h11.9c0.1,0,0.3,0,0.5,0c1.8,0,6.6-0.6,9.4-6.5
		C47.6,29.7,47.2,28.8,46.5,28.4z"/>
	<path class="st0" d="M48.7,22.2C44.8,9.9,28,9.1,28,9.1C5.7,8,1,19.7,1,19.7c-4.1,10.6,5.8,7.3,5.8,7.3l8.9-2.2
		c2.2-0.5,4.5-0.9,6.8-1c0.6-0.9,1.4-1.8,2.4-2.7c1.9-1.7,2.8-3.2,2.8-4.4c0-0.6,0-2.1-3.4-2.1c-1,0-2.3,0.6-3.9,1.8
		c-0.5,0.4-1.1,0.6-1.6,0.6c-1.5,0-2.5-1-2.5-2.5c0-1.4,1.1-2.7,3.4-3.7c1.9-0.8,3.4-1.2,4.6-1.2c6.9,0,8.3,3.9,8.3,7.1
		c0,2.6-1.2,5-3.5,7.2c3.2,0.3,6.5,1,9.6,2.2C51.3,30.6,48.7,22.2,48.7,22.2z"/>
</g>
</svg>
